<?xml version="1.0" encoding="UTF-8" standalone="no"?>
<!-- Created with Inkscape (http://www.inkscape.org/) -->

<svg
   width="1812.063mm"
   height="186.56085mm"
   viewBox="0 0 1812.0631 186.56085"
   version="1.1"
   id="svg5"
   xml:space="preserve"
   inkscape:version="1.2.1 (9c6d41e410, 2022-07-14)"
   sodipodi:docname="logo-with-title.svg"
   xmlns:inkscape="http://www.inkscape.org/namespaces/inkscape"
   xmlns:sodipodi="http://sodipodi.sourceforge.net/DTD/sodipodi-0.dtd"
   xmlns="http://www.w3.org/2000/svg"
   xmlns:svg="http://www.w3.org/2000/svg"><sodipodi:namedview
     id="namedview7"
     pagecolor="#ffffff"
     bordercolor="#666666"
     borderopacity="1.0"
     inkscape:showpageshadow="2"
     inkscape:pageopacity="0.0"
     inkscape:pagecheckerboard="0"
     inkscape:deskcolor="#d1d1d1"
     inkscape:document-units="mm"
     showgrid="false"
     showguides="false"
     inkscape:zoom="0.2102413"
     inkscape:cx="5096.5248"
     inkscape:cy="152.20606"
     inkscape:window-width="1920"
     inkscape:window-height="1027"
     inkscape:window-x="-8"
     inkscape:window-y="479"
     inkscape:window-maximized="1"
     inkscape:current-layer="text299" /><defs
     id="defs2" /><g
     inkscape:label="Layer 1"
     inkscape:groupmode="layer"
     id="layer1"
     transform="translate(-18.810382,-34.881837)"><rect
       style="fill:#faadab;fill-opacity:1;stroke-width:2.29204;stroke-linecap:round;stroke-dashoffset:30.2362;paint-order:markers fill stroke"
       id="rect3469"
       width="20.256516"
       height="171.72293"
       x="106.24454"
       y="42.3008" /><path
       id="rect2564"
       style="fill:#cdd1d2;stroke-width:2.62034;stroke-linecap:round;stroke-dashoffset:30.2362;paint-order:markers fill stroke"
       d="m 162.26725,45.268562 h 31.04354 V 82.87419 l -31.04354,34.01542 z"
       sodipodi:nodetypes="ccccc" /><path
       id="rect2564-2"
       style="fill:#cdd1d2;stroke-width:2.8462;stroke-linecap:round;stroke-dashoffset:30.2362;paint-order:markers fill stroke"
       d="m 193.31079,214.20227 h -33.71925 v -60.42423 l 33.71925,-36.94728 z"
       sodipodi:nodetypes="ccccc" /><path
       id="rect517"
       style="fill:#a0cee7;fill-opacity:1;stroke-width:2.3145;stroke-linecap:round;stroke-dashoffset:30.2362;paint-order:markers fill stroke"
       d="m 55.900799,43.46668 h 18.559504 v 29.588411 l 6.286087,15.238994 -6.286087,14.964395 v 41.37235 l 5.819257,13.96437 -5.819257,13.40745 v 40.8552 H 55.900799 Z"
       sodipodi:nodetypes="ccccccccccc" /><path
       id="path304"
       style="fill:#1b2240;stroke-width:0.264583;fill-opacity:1.0"
       d="m 115.33117,34.882631 c -0.59684,0.01 -1.19437,0.08482 -1.78645,0.22686 -1.09214,0.262001 -1.73192,0.660308 -3.06338,1.905827 -0.92576,0.866006 -1.75529,1.800122 -1.84279,2.075842 -0.15425,0.486088 -0.84753,0.503853 -22.831671,0.579293 l -22.673035,0.07751 -1.719792,0.635104 c -2.630554,0.971418 -4.58246,2.430597 -5.513358,4.121195 -0.28573,0.518879 -0.291207,0.518068 -0.299207,-0.04186 -0.01175,-0.833679 -1.998612,-2.729302 -3.977018,-3.7946 l -1.719792,-0.926042 -7.9375,0.01137 c -7.896334,0.01153 -7.949854,0.01583 -10.31875,0.741557 -2.827634,0.866257 -4.555373,1.857335 -6.856429,3.934127 -2.823814,2.548593 -4.696999,5.535692 -5.559867,8.865608 -0.38445,1.483744 -0.42368,8.723608 -0.42168,77.253668 l 0.0021,75.61659 c 0,6.78362 5.053464,12.33179 12.643156,14.68746 1.64491,0.45675 2.520174,0.51437 9.525,0.52917 4.325952,0.009 8.225945,-0.0912 8.666655,-0.22273 2.154664,-0.6432 4.305661,-2.33287 4.749581,-3.73155 0.208248,-0.65615 0.481423,-0.69162 0.952913,-0.12351 0.843248,1.01605 3.53438,2.81941 5.069458,3.39721 l 1.669665,0.62839 16.529741,0.0517 c 9.091172,0.0285 17.027908,0.0391 17.637166,0.0243 l 46.120694,0.006 c 7.92461,0.0523 9.32764,10e-4 10.64069,-0.38757 1.66739,-0.49406 4.67697,-2.5886 5.0984,-3.54811 0.30249,-0.68864 0.61664,-0.76365 0.83354,-0.19843 0.2113,0.55063 3.15903,2.84929 4.57181,3.56515 1.15095,0.58323 1.32563,0.59197 11.77396,0.59997 10.79107,0.008 11.6501,-0.0564 14.04514,-1.05317 5.8324,-2.42731 10.83434,-9.09387 11.53005,-15.36702 0.15708,-1.41638 0.22765,-22.37145 0.18345,-54.684 -0.0654,-47.78476 -0.10975,-52.468852 -0.50333,-53.31353 -1.94056,-4.164832 -7.54673,-4.604183 -9.51518,-0.745691 l -0.54881,1.075903 -0.0667,54.273158 -0.0672,54.27266 -0.57206,1.11363 c -0.73818,1.43653 -1.69434,2.3162 -3.40031,3.12797 l -1.37304,0.65319 h -11.26081 -11.26133 l -0.0662,-42.13489 c -0.0879,-55.98786 0.0402,-117.946591 0.24443,-118.277011 0.10778,-0.174384 3.99995,-0.218875 11.33626,-0.130225 l 11.17193,0.134876 1.37614,0.748791 c 1.40443,0.764386 2.49029,1.921203 3.3135,3.529501 0.42265,0.825339 0.45828,2.048629 0.42478,14.552083 -0.032,11.934554 0.0178,13.833821 0.39584,15.106055 0.75976,2.556702 3.52449,4.568755 5.59397,4.071069 2.0071,-0.482683 3.82321,-1.966668 4.35994,-3.562056 0.20819,-0.618821 0.33898,-5.193316 0.41239,-14.427544 0.0893,-11.234229 0.0397,-13.913552 -0.29301,-15.84141 -1.22989,-7.126919 -7.47873,-13.475091 -14.45751,-14.686959 -1.1302,-0.196246 -5.03056,-0.27072 -11.37708,-0.217041 l -9.65729,0.08165 -1.67225,0.772046 c -1.16201,0.536505 -2.06998,1.218355 -2.97657,2.235522 -0.71748,0.804999 -1.30431,1.546635 -1.30431,1.647962 0,0.101328 -0.70802,-0.508552 -1.57355,-1.355473 -0.93842,-0.918243 -2.30023,-1.89525 -3.37343,-2.420007 l -1.7999,-0.88005 h -14.28749 -14.2875 l -1.3963,-1.488281 c -2.09765,-2.236047 -4.67422,-3.414053 -7.26054,-3.370854 z m 1.65726,10.944552 c 1.86367,6e-6 3.37447,1.510807 3.37447,3.374471 l 0.10673,22.686987 c 0.10331,21.960153 -0.53188,20.747133 1.17485,22.587769 2.39382,2.581624 6.63903,1.639495 8.19123,-1.817977 0.13066,-0.29104 0.29669,-9.935128 0.36949,-21.43125 l 0.13229,-20.902083 7.67292,-0.04651 c 10.20533,-0.06175 11.03471,0.01042 12.23646,1.065568 0.51889,0.45559 1.16023,1.305443 1.42523,1.888773 0.46243,1.017901 0.48183,4.126133 0.48783,77.197349 0.006,76.00188 0.005,76.13881 -0.53227,77.28107 -0.29583,0.62935 -0.95671,1.55109 -1.46916,2.04794 l -0.93172,0.9033 -9.51105,0.0755 -9.51053,0.076 v -53.9285 -47.73713 l -0.59532,-1.17668 c -1.13165,-2.23745 -4.17414,-3.51328 -6.28953,-2.63704 -1.18033,0.4889 -2.79395,2.45338 -3.13831,3.82095 -0.21255,0.84427 -0.29544,9.69587 -0.29559,47.45085 0.12141,18.02226 -0.1911,34.20913 -5.2e-4,51.62245 1.4e-4,1.75335 -1.42112,3.17484 -3.17448,3.175 -1.75356,1.3e-4 -3.17514,-1.42144 -3.175,-3.175 0.16572,-26.76035 0,-51.17114 0,-78.25648 -0.19303,-26.84489 0.23121,-54.072882 0.0775,-80.770777 0,-1.863664 1.5108,-3.374465 3.37447,-3.374471 z m -37.583228,4.365625 h 11.773959 11.773959 v 80.301032 80.30105 H 91.179161 79.405202 l 0.0062,-9.45886 c 0.007,-10.94825 0.246047,-14.75807 1.196827,-19.05775 1.751866,-7.92237 3.663663,-11.85229 8.089945,-16.62999 2.576394,-2.78095 3.400443,-4.36063 3.404443,-6.52364 0.0031,-1.85526 -0.526657,-2.99263 -2.383833,-5.11493 -7.369216,-8.42122 -11.269171,-21.37867 -10.348723,-34.38291 0.31563,-4.45923 1.002877,-7.46495 2.818433,-12.32328 1.999586,-5.35081 3.587315,-8.124157 7.096207,-12.396139 2.302156,-2.802804 2.927772,-4.128914 2.936772,-6.217708 0.0087,-2.149059 -0.616207,-3.319847 -3.673161,-6.879167 -3.957082,-4.607378 -6.156727,-8.768889 -7.717875,-14.602209 -1.163838,-4.348763 -1.424459,-6.530463 -1.424719,-11.92227 z m -41.77006,0.115238 c 1.625784,-0.01459 3.845757,0.0047 6.514331,0.05943 l 8.532813,0.174667 v 13.702004 13.701489 l -5.88698,0.0801 c -5.732128,0.07811 -5.910133,0.09727 -6.779431,0.717269 -1.195688,0.852779 -2.246847,3.206674 -2.083077,4.665349 0.1822,1.622937 0.943084,2.970831 2.232422,3.955314 1.377358,1.051703 3.351323,1.369212 6.701917,1.076937 1.148306,-0.10009 2.926658,-0.0995 3.951696,0.0016 l 1.863453,0.183451 v 4.331519 4.331518 h -5.299935 c -6.630618,0 -7.623427,0.315001 -8.754505,2.778117 -0.777518,1.69321 -0.653136,3.46746 0.362252,5.16609 1.438098,2.40578 1.974127,2.57829 8.334375,2.68201 l 5.357813,0.0873 v 6.54947 6.54948 l -0.727605,0.0109 c -0.400178,0.006 -2.773659,0.002 -5.274613,-0.0103 -5.751908,-0.0276 -6.842938,0.33831 -8.048604,2.70061 -0.985938,1.93177 -0.5484,4.14663 1.182356,5.9862 1.481518,1.57467 1.743012,1.63143 7.56388,1.63143 h 5.304586 v 5.15937 c 0,5.15888 -5.5e-5,5.15923 -0.595313,5.21053 -0.32742,0.0282 -2.805703,0.0581 -5.507157,0.0661 -4.90411,0.0148 -4.913009,0.0158 -6.013587,0.74259 -2.249376,1.48538 -2.941311,4.53689 -1.561145,6.88485 0.40822,0.69448 1.232115,1.58746 1.831413,1.98438 1.083708,0.71773 1.119044,0.72198 6.467822,0.80718 l 5.377967,0.0858 v 9.67124 c -2.824244,0.1596 -5.188282,0.34119 -8.00313,0.19017 -4.07802,-0.41571 -6.528153,1.52642 -6.542753,5.18521 0.02819,2.10518 0.370097,5.51513 3.565674,5.41983 l 5.490104,0.0894 5.490105,0.0889 v 4.76198 4.76199 l -5.490105,-0.0884 c -5.15083,-0.0832 -5.555509,-0.0549 -6.548437,0.46405 -3.102924,1.62171 -3.487958,6.03767 -0.751892,8.62428 1.224238,1.15737 1.910567,1.27383 7.516337,1.27383 h 5.274097 v 8.99583 8.99584 l -9.06198,-0.0103 c -4.708386,-0.008 -14.159468,1.45987 -14.353645,-5.41362 V 130.20859 55.046258 l 0.803568,-1.302246 c 0.846708,-1.372612 2.842586,-2.796043 4.616772,-3.291788 0.29075,-0.08124 1.322357,-0.129587 2.948141,-0.144178 z m 29.683976,0.07803 c 0.173617,0.003 0.356192,0.0125 0.549837,0.02791 l 1.160653,0.09198 0.129191,6.788733 c 0.13887,7.291749 0.461457,10.078825 1.762683,15.231112 0.40817,1.616204 1.130894,3.872658 1.606104,5.014164 0.867658,2.084206 3.579111,6.114005 6.607865,9.820589 l 1.610755,1.970939 -1.418518,1.928048 c -3.104704,4.218412 -5.948311,9.698049 -7.303947,14.075109 -3.972922,12.82758 -4.027728,26.2877 -0.153996,37.9305 1.546316,4.64758 3.014165,7.5998 6.081799,12.23181 1.550738,2.34156 2.457883,3.95291 2.328023,4.13566 -3.157732,4.444 -4.033323,5.78934 -5.102531,7.83828 -2.215024,4.24474 -4.208595,10.35257 -5.159375,15.80731 -0.624488,3.5828 -0.937073,10.07226 -0.917773,19.05 l 0.01757,8.33437 -1.404565,0.0553 c -2.216416,0.0873 -2.8985,-0.37819 -3.973918,-2.71095 l -0.605648,-1.3131 -0.07235,-76.2 c -0.07953,-83.792999 -0.19895,-77.455937 1.493966,-79.077852 0.789406,-0.756299 1.548853,-1.050701 2.764172,-1.029911 z M 176.29851,65.238401 c -2.90411,-0.0045 -5.08289,2.326333 -5.08289,5.437911 0,0.821723 0.16086,1.876807 0.35709,2.345077 0.50852,1.213492 1.73123,2.583019 2.67269,2.993099 1.2014,0.523296 3.43615,0.45936 4.58784,-0.131259 1.27128,-0.651953 2.01101,-1.46305 2.6789,-2.936254 1.71013,-3.772148 -0.94757,-7.701874 -5.21363,-7.708574 z m -0.0786,24.392827 c -2.85017,0.08126 -5.00435,2.101147 -5.00435,5.068941 0,3.165224 1.36364,5.260249 3.92741,6.034771 1.16927,0.35324 1.86326,0.28527 3.29954,-0.3235 1.94932,-0.8262 2.75307,-1.479056 3.35742,-2.727474 1.43903,-2.972634 -0.33131,-6.896171 -3.51348,-7.787122 -0.71394,-0.19989 -1.40881,-0.284369 -2.06654,-0.265616 z m 0.007,22.802222 c -0.97787,0.0381 -1.95941,0.34779 -2.83756,0.98392 -3.69643,2.67767 -2.65091,9.01757 1.70222,10.32236 1.09615,0.32856 1.43961,0.31458 2.89388,-0.1173 2.38917,-0.70951 4.07831,-3.06946 4.07831,-5.69836 0,-3.27709 -2.90326,-5.60502 -5.83685,-5.49062 z m 0.22426,22.87095 c -2.67135,0.003 -5.13668,1.88165 -5.42499,5.06119 -0.22461,2.47696 0.67666,4.29404 2.7957,5.6379 2.64448,1.67709 6.28178,0.63755 7.74371,-2.2133 1.16421,-2.2703 0.96885,-4.70255 -0.509,-6.34328 -1.32561,-1.4717 -3.00258,-2.14452 -4.60542,-2.14251 z m 0.41704,21.31756 c -1.04586,-0.0179 -2.14449,0.26285 -3.19775,0.88005 -2.0258,1.18713 -3.20774,4.31098 -2.47323,6.53656 0.46598,1.41192 1.737,3.01672 2.85822,3.60856 3.05363,1.61185 6.92392,-0.47192 7.99745,-4.3062 0.27779,-0.99212 0.26168,-1.40648 -0.1049,-2.66753 -0.73463,-2.52702 -2.7789,-4.01202 -5.07979,-4.05144 z m -0.063,19.78329 c -2.41203,0.0846 -4.90654,1.72585 -5.62292,4.32894 -0.64823,2.3555 0.58393,5.15324 2.83704,6.44198 1.33423,0.76317 3.43844,0.8008 4.83898,0.0863 3.52848,-1.8001 4.31675,-6.61857 1.55029,-9.47694 -0.85088,-0.87917 -1.96266,-1.31524 -3.12281,-1.37614 -0.15951,-0.008 -0.31979,-0.01 -0.48059,-0.004 z"
       sodipodi:nodetypes="csssccsccsccssccccccssccccccssscsssscccccccccssccccscssssssccssssccccccccssscccssccsccccccscccscccscsccccccsscsssscssccscccccssscccccsssccccccssscssccsscccccccccccsssccccccccsscsccssccccsscssccsccssccssssscssssssssssssscsssscssssssssssssssccs" /><g
       aria-label="CONCERTiNA.io"
       id="text299"
       style="font-size:221.766px;line-height:125%;font-family:Caprasimo;-inkscape-font-specification:Caprasimo;letter-spacing:0px;word-spacing:0px;fill:#1b2240;stroke:#000000;stroke-width:6.93016px"><path
         d="m 377.2666,192.04994 q -10.82842,9.31244 -24.25566,14.29351 -13.42724,4.98107 -27.82904,4.98107 -11.04498,0 -21.33198,-2.92367 -10.17871,-2.81539 -19.1663,-8.01303 -8.8793,-5.30593 -16.24263,-12.66925 -7.36332,-7.36332 -12.66925,-16.24263 -5.19764,-8.98758 -8.12131,-19.1663 -2.81539,-10.28699 -2.81539,-21.33198 0,-11.04499 2.81539,-21.33199 2.92367,-10.286993 8.12131,-19.166296 5.30593,-8.987587 12.66925,-16.350912 7.36333,-7.363324 16.24263,-12.560965 8.98759,-5.305925 19.1663,-8.121314 10.287,-2.923672 21.33198,-2.923672 14.4018,0 27.82904,4.981072 13.42724,4.872788 24.25566,14.293512 l -16.4592,27.071046 q -6.8219,-7.363325 -16.13434,-11.261555 -9.31244,-4.006515 -19.49116,-4.006515 -10.28699,0 -19.27458,3.898231 -8.98759,3.89823 -15.70121,10.61185 -6.71362,6.605338 -10.61185,15.701208 -3.89823,8.98759 -3.89823,19.1663 0,10.17871 3.89823,19.1663 3.89823,8.8793 10.61185,15.59292 6.71362,6.71362 15.70121,10.61185 8.98759,3.89823 19.27458,3.89823 10.17872,0 19.49116,-3.89823 9.31244,-4.00651 16.13434,-11.36984 z"
         style="font-family:Righteous;-inkscape-font-specification:Righteous;stroke:none;fill:#1b2240;fill-opacity:1"
         id="path396" /><path
         d="m 542.94139,130.97766 q 0,11.04499 -2.92368,21.33198 -2.81538,10.17872 -8.01302,19.1663 -5.19765,8.87931 -12.56097,16.24263 -7.36332,7.36332 -16.24263,12.66925 -8.8793,5.19764 -19.1663,8.01303 -10.287,2.92367 -21.33198,2.92367 -11.04499,0 -21.33199,-2.92367 -10.17871,-2.81539 -19.1663,-8.01303 -8.8793,-5.30593 -16.24262,-12.66925 -7.36333,-7.36332 -12.66925,-16.24263 -5.19764,-8.98758 -8.12132,-19.1663 -2.81539,-10.28699 -2.81539,-21.33198 0,-11.04499 2.81539,-21.33199 2.92368,-10.286993 8.12132,-19.166296 5.30592,-8.879303 12.66925,-16.242627 7.36332,-7.363325 16.24262,-12.560966 8.98759,-5.19764 19.1663,-8.013029 10.287,-2.923673 21.33199,-2.923673 11.04498,0 21.33198,2.923673 10.287,2.815389 19.1663,8.013029 8.87931,5.197641 16.24263,12.560966 7.36332,7.363324 12.56097,16.242627 5.19764,8.879303 8.01302,19.166296 2.92368,10.287 2.92368,21.33199 z m -30.86099,0 q 0,-10.17871 -3.89824,-19.1663 -3.89823,-9.09587 -10.61185,-15.701208 -6.60533,-6.71362 -15.7012,-10.61185 -8.98759,-3.898231 -19.1663,-3.898231 -10.287,0 -19.27459,3.898231 -8.98758,3.89823 -15.7012,10.61185 -6.71362,6.605338 -10.61185,15.701208 -3.89823,8.98759 -3.89823,19.1663 0,10.17871 3.89823,19.1663 3.89823,8.8793 10.61185,15.59292 6.71362,6.71362 15.7012,10.61185 8.98759,3.89823 19.27459,3.89823 10.17871,0 19.1663,-3.89823 9.09587,-3.89823 15.7012,-10.61185 6.71362,-6.71362 10.61185,-15.59292 3.89824,-8.98759 3.89824,-19.1663 z"
         style="font-family:Righteous;-inkscape-font-specification:Righteous;stroke:none;fill:#1b2240;fill-opacity:1"
         id="path398" /><path
         d="M 687.50077,207.96771 H 654.25753 L 594.37638,105.74744 V 207.96771 H 563.29881 V 52.688194 h 33.24325 L 656.42321,155.01675 V 52.688194 h 31.07756 z"
         style="font-family:Righteous;-inkscape-font-specification:Righteous;stroke:none;fill:#1b2240;fill-opacity:1"
         id="path400" /><path
         d="m 840.28976,192.04994 q -10.82842,9.31244 -24.25566,14.29351 -13.42724,4.98107 -27.82903,4.98107 -11.04499,0 -21.33199,-2.92367 -10.17871,-2.81539 -19.1663,-8.01303 -8.8793,-5.30593 -16.24263,-12.66925 -7.36332,-7.36332 -12.66924,-16.24263 -5.19765,-8.98758 -8.12132,-19.1663 -2.81539,-10.28699 -2.81539,-21.33198 0,-11.04499 2.81539,-21.33199 2.92367,-10.286993 8.12132,-19.166296 5.30592,-8.987587 12.66924,-16.350912 7.36333,-7.363324 16.24263,-12.560965 8.98759,-5.305925 19.1663,-8.121314 10.287,-2.923672 21.33199,-2.923672 14.40179,0 27.82903,4.981072 13.42724,4.872788 24.25566,14.293512 l -16.4592,27.071046 q -6.8219,-7.363325 -16.13434,-11.261555 -9.31244,-4.006515 -19.49115,-4.006515 -10.287,0 -19.27459,3.898231 -8.98759,3.89823 -15.7012,10.61185 -6.71362,6.605338 -10.61185,15.701208 -3.89824,8.98759 -3.89824,19.1663 0,10.17871 3.89824,19.1663 3.89823,8.8793 10.61185,15.59292 6.71361,6.71362 15.7012,10.61185 8.98759,3.89823 19.27459,3.89823 10.17871,0 19.49115,-3.89823 9.31244,-4.00651 16.13434,-11.36984 z"
         style="font-family:Righteous;-inkscape-font-specification:Righteous;stroke:none;fill:#1b2240;fill-opacity:1"
         id="path402" /><path
         d="M 964.70832,207.96771 H 858.26497 V 52.688194 h 106.44335 v 31.077561 h -75.36579 v 31.077565 h 51.00185 v 31.07756 h -51.00185 v 30.96927 h 75.36579 z"
         style="font-family:Righteous;-inkscape-font-specification:Righteous;stroke:none;fill:#1b2240;fill-opacity:1"
         id="path404" /><path
         d="m 1017.551,83.765755 v 62.155125 h 31.0775 q 6.3888,0 12.0196,-2.38226 5.6307,-2.49053 9.8538,-6.71362 4.2231,-4.22308 6.6054,-9.85386 2.4905,-5.73906 2.4905,-12.12782 0,-6.38877 -2.4905,-12.01955 -2.3823,-5.739061 -6.6054,-9.962144 -4.2231,-4.223083 -9.8538,-6.605335 -5.6308,-2.490536 -12.0196,-2.490536 z m 0,124.201955 H 986.47341 V 52.688194 h 62.15509 q 8.5545,0 16.4592,2.273968 7.9048,2.165684 14.7267,6.280483 6.9302,4.006514 12.5609,9.745576 5.7391,5.630778 9.7456,12.560965 4.1148,6.930188 6.2805,14.834933 2.274,7.904741 2.274,16.459201 0,8.01302 -2.0574,15.59292 -1.9492,7.57989 -5.7391,14.40179 -3.6817,6.82191 -9.0959,12.56097 -5.4142,5.73906 -12.1278,9.96214 l 17.2172,40.60657 h -33.0267 l -13.5355,-31.29413 -34.7592,0.21657 z"
         style="font-family:Righteous;-inkscape-font-specification:Righteous;stroke:none;fill:#1b2240;fill-opacity:1"
         id="path406" /><path
         d="m 1193.5127,207.96771 h -30.9693 V 83.765755 H 1115.873 V 52.688194 h 124.2019 v 31.077561 h -46.5622 z"
         style="font-family:Righteous;-inkscape-font-specification:Righteous;stroke:none;fill:#1b2240;fill-opacity:1"
         id="path408" /><path
         d="m 1288.2614,60.484655 q 0,4.114799 -1.6243,7.688177 -1.5159,3.573378 -4.223,6.280483 -2.7071,2.59882 -6.3888,4.223083 -3.5734,1.515979 -7.6882,1.515979 -4.1148,0 -7.7964,-1.515979 -3.5734,-1.624263 -6.2805,-4.223083 -2.5989,-2.707105 -4.2231,-6.280483 -1.516,-3.573378 -1.516,-7.688177 0,-4.006514 1.516,-7.579892 1.6242,-3.681663 4.2231,-6.280483 2.7071,-2.707105 6.2805,-4.223083 3.6816,-1.624263 7.7964,-1.624263 4.1148,0 7.6882,1.624263 3.6817,1.515978 6.3888,4.223083 2.7071,2.59882 4.223,6.280483 1.6243,3.573378 1.6243,7.579892 z m -5.0894,147.483055 h -29.7781 V 91.995353 h 29.7781 z"
         style="font-family:Righteous;-inkscape-font-specification:Righteous;stroke:none;fill:#1b2240;fill-opacity:1"
         id="path410" /><path
         d="m 1433.0374,207.96771 h -33.2433 L 1339.913,105.74744 v 102.22027 h -31.0776 V 52.688194 h 33.2432 l 59.8812,102.328556 V 52.688194 h 31.0776 z"
         style="font-family:Righteous;-inkscape-font-specification:Righteous;stroke:none;fill:#1b2240;fill-opacity:1"
         id="path412" /><path
         d="m 1553.2329,145.92088 v -31.07756 q 0,-6.38877 -2.4906,-12.01955 -2.3822,-5.739061 -6.6053,-9.962144 -4.2231,-4.223083 -9.9621,-6.605335 -5.6308,-2.490536 -12.0196,-2.490536 -6.3888,0 -12.1278,2.490536 -5.6308,2.382252 -9.8539,6.605335 -4.2231,4.223083 -6.7136,9.962144 -2.3823,5.63078 -2.3823,12.01955 v 31.07756 z m 31.0775,62.04683 h -31.0775 v -31.07756 h -62.1552 v 31.07756 h -30.9692 v -93.12439 q 0,-12.88582 4.8728,-24.147378 4.8728,-11.369839 13.2106,-19.816005 8.4462,-8.446166 19.7078,-13.318955 11.3698,-4.872788 24.2556,-4.872788 12.8858,0 24.1474,4.872788 11.3698,4.872789 19.816,13.318955 8.4462,8.446166 13.3189,19.816005 4.8728,11.261558 4.8728,24.147378 z"
         style="font-family:Righteous;-inkscape-font-specification:Righteous;stroke:none;fill:#1b2240;fill-opacity:1"
         id="path414" /><path
         d="m 1631.8716,203.2821 q 0,2.5672 -0.9271,4.84915 -0.927,2.21064 -2.5671,3.85081 -1.6403,1.64015 -3.8509,2.56719 -2.2106,0.99836 -4.7777,0.99836 -2.496,0 -4.778,-0.99836 -2.2106,-0.92704 -3.922,-2.56719 -1.6401,-1.64017 -2.6385,-3.85081 -0.9271,-2.28195 -0.9271,-4.84915 0,-2.49589 0.9271,-4.70654 0.9984,-2.21064 2.6385,-3.8508 1.7114,-1.64015 3.922,-2.5672 2.282,-0.99835 4.778,-0.99835 2.5671,0 4.7777,0.99835 2.2106,0.92705 3.8509,2.5672 1.6401,1.64016 2.5671,3.8508 0.9271,2.21065 0.9271,4.70654 z"
         style="font-family:Righteous;-inkscape-font-specification:Righteous;fill:#1b2240;fill-opacity:1;stroke:none;stroke-width:4.56389px"
         id="path416" /><path
         d="m 1669.3098,113.43011 q 0,2.70982 -1.0696,5.06309 -0.9984,2.35327 -2.7811,4.13604 -1.7828,1.71147 -4.2074,2.78113 -2.3532,0.99836 -5.0631,0.99836 -2.7098,0 -5.1343,-0.99836 -2.3533,-1.06966 -4.1361,-2.78113 -1.7115,-1.78277 -2.7811,-4.13604 -0.9984,-2.35327 -0.9984,-5.06309 0,-2.63851 0.9984,-4.99178 1.0696,-2.42458 2.7811,-4.13604 1.7828,-1.78278 4.1361,-2.78113 2.4245,-1.06967 5.1343,-1.06967 2.7099,0 5.0631,1.06967 2.4246,0.99835 4.2074,2.78113 1.7827,1.71146 2.7811,4.13604 1.0696,2.35327 1.0696,4.99178 z m -3.3515,97.12572 h -19.6106 v -76.37419 h 19.6106 z"
         style="font-family:Righteous;-inkscape-font-specification:Righteous;fill:#1b2240;fill-opacity:1;stroke:none;stroke-width:4.56389px"
         id="path418" /><path
         d="m 1754.598,171.69128 q 0,8.55733 -3.0664,15.97369 -3.0664,7.34504 -8.3435,12.76469 -5.277,5.34833 -12.4081,8.48602 -7.0597,3.06638 -15.1892,3.06638 -8.0582,0 -15.1893,-3.06638 -7.0598,-3.13769 -12.4081,-8.48602 -5.277,-5.41965 -8.3435,-12.76469 -3.0663,-7.41636 -3.0663,-15.97369 0,-8.69995 3.0663,-16.11631 3.0665,-7.41636 8.3435,-12.76469 5.3483,-5.41964 12.4081,-8.48602 7.1311,-3.06638 15.1893,-3.06638 8.1295,0 15.1892,2.92376 7.1311,2.85244 12.4081,8.20077 5.2771,5.27703 8.3435,12.76469 3.0664,7.41636 3.0664,16.54418 z m -19.6106,0 q 0,-4.70653 -1.5688,-8.48603 -1.4976,-3.85079 -4.1361,-6.56062 -2.6385,-2.78113 -6.204,-4.20735 -3.4943,-1.49753 -7.4877,-1.49753 -3.9934,0 -7.559,1.49753 -3.4943,1.42622 -6.1327,4.20735 -2.5672,2.70983 -4.0648,6.56062 -1.4975,3.7795 -1.4975,8.48603 0,4.42128 1.4975,8.20077 1.4976,3.7795 4.0648,6.56063 2.6384,2.78113 6.1327,4.42129 3.5656,1.56884 7.559,1.56884 3.9934,0 7.4877,-1.49753 3.5655,-1.49754 6.204,-4.20735 2.6385,-2.70982 4.1361,-6.56063 1.5688,-3.8508 1.5688,-8.48602 z"
         style="font-family:Righteous;-inkscape-font-specification:Righteous;fill:#1b2240;fill-opacity:1;stroke:none;stroke-width:4.56389px"
         id="path420" /></g></g></svg>
